<svg width="53" height="19" viewBox="0 0 53 19" fill="none" xmlns="http://www.w3.org/2000/svg">
<path d="M15.6619 6.43466H12.4744C12.3835 5.91193 12.2159 5.44886 11.9716 5.04545C11.7273 4.63636 11.4233 4.28977 11.0597 4.00568C10.696 3.72159 10.2813 3.50852 9.81534 3.36648C9.35511 3.21875 8.85795 3.14489 8.32386 3.14489C7.375 3.14489 6.53409 3.38352 5.80114 3.86079C5.06818 4.33239 4.49432 5.02557 4.07955 5.94034C3.66477 6.84943 3.45739 7.96023 3.45739 9.27273C3.45739 10.608 3.66477 11.733 4.07955 12.6477C4.5 13.5568 5.07386 14.2443 5.80114 14.7102C6.53409 15.1705 7.37216 15.4006 8.31534 15.4006C8.83807 15.4006 9.3267 15.3324 9.78125 15.196C10.2415 15.054 10.6534 14.8466 11.017 14.5739C11.3864 14.3011 11.696 13.9659 11.946 13.5682C12.2017 13.1705 12.3778 12.7159 12.4744 12.2045L15.6619 12.2216C15.5426 13.0511 15.2841 13.8295 14.8864 14.5568C14.4943 15.2841 13.9801 15.9261 13.3438 16.483C12.7074 17.0341 11.9631 17.4659 11.1108 17.7784C10.2585 18.0852 9.3125 18.2386 8.27273 18.2386C6.73864 18.2386 5.36932 17.8835 4.16477 17.1733C2.96023 16.4631 2.01136 15.4375 1.31818 14.0966C0.625 12.7557 0.278409 11.1477 0.278409 9.27273C0.278409 7.39205 0.627841 5.78409 1.3267 4.44886C2.02557 3.10795 2.97727 2.08239 4.18182 1.37216C5.38636 0.661931 6.75 0.306818 8.27273 0.306818C9.24432 0.306818 10.1477 0.443181 10.983 0.715908C11.8182 0.988636 12.5625 1.3892 13.2159 1.91761C13.8693 2.44034 14.4063 3.08239 14.8267 3.84375C15.2528 4.59943 15.5313 5.46307 15.6619 6.43466ZM18.4135 18V0.545454H24.959C26.2999 0.545454 27.4249 0.778409 28.334 1.24432C29.2488 1.71023 29.9391 2.36364 30.405 3.20454C30.8766 4.03977 31.1124 5.0142 31.1124 6.12784C31.1124 7.24716 30.8738 8.21875 30.3965 9.04261C29.9249 9.8608 29.2289 10.4943 28.3084 10.9432C27.388 11.3864 26.2573 11.608 24.9164 11.608H20.2544V8.98295H24.4902C25.2743 8.98295 25.9164 8.875 26.4164 8.65909C26.9164 8.4375 27.2857 8.11648 27.5243 7.69602C27.7686 7.26989 27.8908 6.74716 27.8908 6.12784C27.8908 5.50852 27.7686 4.98011 27.5243 4.54261C27.28 4.09943 26.9078 3.7642 26.4078 3.53693C25.9078 3.30398 25.263 3.1875 24.4732 3.1875H21.5755V18H18.4135ZM27.4306 10.0909L31.7516 18H28.2232L23.9789 10.0909H27.4306ZM33.8789 0.545454H37.7482L42.93 13.1932H43.1346L48.3164 0.545454H52.1857V18H49.1516V6.00852H48.9897L44.1658 17.9489H41.8988L37.0749 5.98295H36.913V18H33.8789V0.545454Z" fill="url(#paint0_linear_102_1603)"/>
<defs>
<linearGradient id="paint0_linear_102_1603" x1="26.5" y1="-7" x2="26.5" y2="25" gradientUnits="userSpaceOnUse">
<stop stop-color="#15B8A6"/>
<stop offset="1" stop-color="#0D9488"/>
</linearGradient>
</defs>
</svg>
